<svg xmlns="http://www.w3.org/2000/svg" xmlns:xlink="http://www.w3.org/1999/xlink" width="468" height="124" viewBox="0 0 468 124">
  <defs>
    <filter id="PHOTO" x="0" y="8" width="352" height="116" filterUnits="userSpaceOnUse">
      <feOffset dy="3" input="SourceAlpha"/>
      <feGaussianBlur stdDeviation="3" result="blur"/>
      <feFlood flood-opacity="0.259"/>
      <feComposite operator="in" in2="blur"/>
      <feComposite in="SourceGraphic"/>
    </filter>
  </defs>
  <g id="Photo-2" data-name="Photo" transform="translate(-302 -490)">
    <g transform="matrix(1, 0, 0, 1, 302, 490)" filter="url(#PHOTO)">
      <text id="PHOTO-3" data-name="PHOTO" transform="translate(176 91)" font-size="100" font-family="Adam-Bold, Adam" font-weight="700"><tspan x="-167" y="0">PHOTO</tspan></text>
    </g>
    <g id="L">
      <g id="L2" transform="translate(683 591) rotate(-90)" fill="none">
        <path d="M41.851,14.9a10,10,0,0,1,17.3,0L92.281,71.98A10,10,0,0,1,83.633,87H17.367A10,10,0,0,1,8.719,71.98Z" stroke="none"/>
        <path d="M 50.49999618530273 16.91969299316406 C 49.85487747192383 16.91969299316406 48.65993499755859 17.11377716064453 47.90541458129883 18.41363525390625 L 14.77259826660156 75.49395751953125 C 14.01503753662109 76.799072265625 14.44413757324219 77.93563842773438 14.76735687255859 78.49697875976562 C 15.090576171875 79.05829620361328 15.85811614990234 79.99999237060547 17.36717987060547 79.99999237060547 L 83.6328125 79.99999237060547 C 85.14187622070312 79.99999237060547 85.90941619873047 79.05829620361328 86.23263549804688 78.49697875976562 C 86.55585479736328 77.93563842773438 86.98497772216797 76.79905700683594 86.2274169921875 75.49395751953125 L 53.09455490112305 18.41363525390625 C 52.34005737304688 17.11377716064453 51.14511489868164 16.91969299316406 50.49999618530273 16.91969299316406 M 50.49999618530273 9.919700622558594 C 53.86075592041016 9.919700622558594 57.22151565551758 11.57964324951172 59.14857482910156 14.8995361328125 L 92.28141784667969 71.97983551025391 C 96.15111541748047 78.64647674560547 91.34117889404297 86.99999237060547 83.6328125 86.99999237060547 L 17.36717987060547 86.99999237060547 C 9.6588134765625 86.99999237060547 4.848876953125 78.64647674560547 8.718597412109375 71.97983551025391 L 41.85141754150391 14.8995361328125 C 43.77847671508789 11.57964324951172 47.13923645019531 9.919700622558594 50.49999618530273 9.919700622558594 Z" stroke="none" fill="#464646"/>
      </g>
      <g id="L1" transform="translate(645 591) rotate(-90)" fill="none">
        <path d="M41.851,14.9a10,10,0,0,1,17.3,0L92.281,71.98A10,10,0,0,1,83.633,87H17.367A10,10,0,0,1,8.719,71.98Z" stroke="none"/>
        <path d="M 50.49999618530273 16.91969299316406 C 49.85487747192383 16.91969299316406 48.65993499755859 17.11377716064453 47.90541458129883 18.41363525390625 L 14.77259826660156 75.49395751953125 C 14.01503753662109 76.799072265625 14.44413757324219 77.93563842773438 14.76735687255859 78.49697875976562 C 15.090576171875 79.05829620361328 15.85811614990234 79.99999237060547 17.36717987060547 79.99999237060547 L 83.6328125 79.99999237060547 C 85.14187622070312 79.99999237060547 85.90941619873047 79.05829620361328 86.23263549804688 78.49697875976562 C 86.55585479736328 77.93563842773438 86.98497772216797 76.79905700683594 86.2274169921875 75.49395751953125 L 53.09455490112305 18.41363525390625 C 52.34005737304688 17.11377716064453 51.14511489868164 16.91969299316406 50.49999618530273 16.91969299316406 M 50.49999618530273 9.919700622558594 C 53.86075592041016 9.919700622558594 57.22151565551758 11.57964324951172 59.14857482910156 14.8995361328125 L 92.28141784667969 71.97983551025391 C 96.15111541748047 78.64647674560547 91.34117889404297 86.99999237060547 83.6328125 86.99999237060547 L 17.36717987060547 86.99999237060547 C 9.6588134765625 86.99999237060547 4.848876953125 78.64647674560547 8.718597412109375 71.97983551025391 L 41.85141754150391 14.8995361328125 C 43.77847671508789 11.57964324951172 47.13923645019531 9.919700622558594 50.49999618530273 9.919700622558594 Z" stroke="none" fill="#464646"/>
      </g>
    </g>
  </g>
</svg>
